<svg width="17" height="18" viewBox="0 0 17 18" fill="none" xmlns="http://www.w3.org/2000/svg">
<path d="M1.20081 4.12427H2.78933H15.4975" stroke="#C5C5D1" stroke-width="1.2" stroke-linecap="round" stroke-linejoin="round"/>
<path d="M13.909 4.12445V15.1378C13.909 15.5551 13.7416 15.9552 13.4437 16.2503C13.1458 16.5454 12.7418 16.7111 12.3205 16.7111H4.37783C3.95653 16.7111 3.55248 16.5454 3.25457 16.2503C2.95667 15.9552 2.78931 15.5551 2.78931 15.1378V4.12445M5.17209 4.12445V2.55112C5.17209 2.13384 5.33946 1.73366 5.63736 1.4386C5.93527 1.14354 6.33932 0.977783 6.76062 0.977783H9.93767C10.359 0.977783 10.763 1.14354 11.0609 1.4386C11.3588 1.73366 11.5262 2.13384 11.5262 2.55112V4.12445" stroke="#C5C5D1" stroke-width="1.2" stroke-linecap="round" stroke-linejoin="round"/>
<path d="M6.76074 8.05762V12.7776" stroke="#C5C5D1" stroke-width="1.2" stroke-linecap="round" stroke-linejoin="round"/>
<path d="M9.93762 8.05762V12.7776" stroke="#C5C5D1" stroke-width="1.2" stroke-linecap="round" stroke-linejoin="round"/>
</svg>
